<svg xmlns="http://www.w3.org/2000/svg" fill="none" viewBox="0 0 30 30">
  <path fill="#fff" d="M23.758 3.762c1.067 0 1.932-.842 1.932-1.881C25.69.842 24.825 0 23.758 0s-1.932.842-1.932 1.88c0 1.04.865 1.882 1.932 1.882Zm-2.194 13.705c-.592 0-1.07-.466-1.07-1.042V7.137c0-.916-.766-1.662-1.707-1.662h-7.844c-.592 0-1.07-.466-1.07-1.042 0-.577.478-1.042 1.07-1.042h7.844c2.122 0 3.85 1.68 3.85 3.748v9.288c-.002.574-.48 1.04-1.073 1.04Zm6.505 7.598c1.067 0 1.931-.842 1.931-1.88 0-1.04-.864-1.881-1.931-1.881-1.067 0-1.932.842-1.932 1.88 0 1.04.865 1.881 1.931 1.881Z"/>
  <path fill="#fff" d="M22.67 22.09h-9.541c-.592 0-1.07-.465-1.07-1.041 0-.577.478-1.043 1.07-1.043h9.54c.94 0 1.707-.746 1.707-1.662v-7.636c0-.576.479-1.042 1.07-1.042.592 0 1.07.466 1.07 1.042v7.636c0 2.064-1.725 3.746-3.847 3.746ZM6.242 28.958c1.067 0 1.932-.842 1.932-1.88 0-1.04-.865-1.882-1.932-1.882s-1.931.842-1.931 1.881c0 1.039.864 1.88 1.931 1.88Z"/>
  <path fill="#fff" d="M11.213 30c-.164 0-.328-.036-.478-.111a1.043 1.043 0 0 1-.592-.934V25.42c-1.604-.453-2.778-1.896-2.778-3.6v-9.288c0-.576.479-1.042 1.07-1.042.592 0 1.07.466 1.07 1.042v9.288c0 .916.767 1.663 1.708 1.663.592 0 1.07.465 1.07 1.041v2.35l3.946-2.877a1.094 1.094 0 0 1 1.5.211c.355.46.26 1.114-.216 1.462l-5.658 4.121a1.08 1.08 0 0 1-.642.209ZM1.932 7.654c1.067 0 1.932-.842 1.932-1.88 0-1.04-.865-1.881-1.932-1.881S0 4.735 0 5.773c0 1.04.865 1.881 1.932 1.881Z"/>
  <path fill="#fff" d="M4.554 19.291c-.592 0-1.07-.465-1.07-1.042v-7.636c0-2.066 1.725-3.749 3.85-3.749h9.54c.592 0 1.07.466 1.07 1.042 0 .577-.478 1.042-1.07 1.042h-9.54c-.941 0-1.707.746-1.707 1.662v7.637c0 .579-.481 1.044-1.073 1.044Z"/>
</svg>