<svg xmlns="http://www.w3.org/2000/svg" fill="none" viewBox="0 0 119 30">
  <path fill="#fff" d="M23.758 3.762c1.067 0 1.932-.842 1.932-1.881C25.69.842 24.825 0 23.758 0s-1.932.842-1.932 1.88c0 1.04.865 1.882 1.932 1.882Zm-2.194 13.705c-.592 0-1.07-.466-1.07-1.042V7.137c0-.916-.766-1.662-1.707-1.662h-7.844c-.592 0-1.07-.466-1.07-1.042 0-.577.478-1.042 1.07-1.042h7.844c2.122 0 3.85 1.68 3.85 3.748v9.288c-.002.574-.48 1.04-1.073 1.04Zm6.505 7.598c1.067 0 1.931-.842 1.931-1.88 0-1.04-.864-1.881-1.931-1.881-1.067 0-1.932.842-1.932 1.88 0 1.04.865 1.881 1.931 1.881Z"/>
  <path fill="#fff" d="M22.67 22.09h-9.541c-.592 0-1.07-.465-1.07-1.041 0-.577.478-1.043 1.07-1.043h9.54c.94 0 1.707-.746 1.707-1.662v-7.636c0-.576.479-1.042 1.07-1.042.592 0 1.07.466 1.07 1.042v7.636c0 2.064-1.725 3.746-3.847 3.746ZM6.242 28.958c1.067 0 1.932-.842 1.932-1.88 0-1.04-.865-1.882-1.932-1.882s-1.931.842-1.931 1.881c0 1.039.864 1.88 1.931 1.88Z"/>
  <path fill="#fff" d="M11.213 30c-.164 0-.328-.036-.478-.111a1.043 1.043 0 0 1-.592-.934V25.42c-1.604-.453-2.778-1.896-2.778-3.6v-9.288c0-.576.479-1.042 1.07-1.042.592 0 1.07.466 1.07 1.042v9.288c0 .916.767 1.663 1.708 1.663.592 0 1.07.465 1.07 1.041v2.35l3.946-2.877a1.094 1.094 0 0 1 1.5.211c.355.46.26 1.114-.216 1.462l-5.658 4.121a1.08 1.08 0 0 1-.642.209ZM1.932 7.654c1.067 0 1.932-.842 1.932-1.88 0-1.04-.865-1.881-1.932-1.881S0 4.735 0 5.773c0 1.04.865 1.881 1.932 1.881Z"/>
  <path fill="#fff" d="M4.554 19.291c-.592 0-1.07-.465-1.07-1.042v-7.636c0-2.066 1.725-3.749 3.85-3.749h9.54c.592 0 1.07.466 1.07 1.042 0 .577-.478 1.042-1.07 1.042h-9.54c-.941 0-1.707.746-1.707 1.662v7.637c0 .579-.481 1.044-1.073 1.044Zm44.104-2.593h2.044a3.706 3.706 0 0 1-.554 1.784 3.3 3.3 0 0 1-1.36 1.217c-.579.292-1.276.438-2.092.438-.638 0-1.21-.11-1.715-.328a3.652 3.652 0 0 1-1.3-.957 4.265 4.265 0 0 1-.813-1.504c-.187-.588-.28-1.247-.28-1.976v-.69c0-.73.096-1.388.287-1.976a4.364 4.364 0 0 1 .834-1.51c.365-.415.8-.734 1.306-.958a4.155 4.155 0 0 1 1.695-.335c.83 0 1.529.15 2.099.451a3.293 3.293 0 0 1 1.333 1.245c.319.528.51 1.13.574 1.804h-2.051c-.023-.4-.102-.74-.24-1.018a1.357 1.357 0 0 0-.621-.636c-.274-.146-.638-.219-1.094-.219-.342 0-.64.064-.895.192-.256.127-.47.321-.643.58-.173.26-.303.589-.39.985a6.814 6.814 0 0 0-.123 1.381v.704c0 .515.039.968.116 1.36.078.388.196.716.356.985.164.264.374.465.629.601.26.133.572.199.936.199.429 0 .782-.069 1.06-.206.278-.136.49-.339.636-.608.15-.269.239-.604.266-1.005ZM53.847 9.5V20h-1.97V9.5h1.97Zm-.28 6.542h-.54c.004-.515.072-.989.204-1.422a3.49 3.49 0 0 1 .568-1.135c.246-.323.54-.574.882-.752a2.485 2.485 0 0 1 1.148-.266c.365 0 .695.052.991.157.301.1.559.264.773.492.218.223.387.518.506.882.118.365.177.807.177 1.326V20h-1.982v-4.69c0-.328-.048-.585-.144-.772a.79.79 0 0 0-.403-.403 1.495 1.495 0 0 0-.642-.123c-.283 0-.525.052-.725.157-.196.105-.353.25-.472.437a1.94 1.94 0 0 0-.26.643 3.69 3.69 0 0 0-.082.793Zm10.199 2.29v-3.295c0-.237-.04-.44-.117-.608a.865.865 0 0 0-.362-.404c-.16-.095-.367-.143-.622-.143-.219 0-.408.039-.567.116a.823.823 0 0 0-.37.321.888.888 0 0 0-.13.486H59.63c0-.315.073-.613.219-.896.146-.282.357-.53.635-.745.278-.219.609-.39.992-.513.387-.123.82-.184 1.298-.184.575 0 1.085.095 1.532.287a2.34 2.34 0 0 1 1.052.861c.26.383.39.862.39 1.436v3.165c0 .405.025.738.075.998.05.255.123.478.219.67V20h-1.99a2.843 2.843 0 0 1-.218-.752 6.192 6.192 0 0 1-.068-.916Zm.26-2.837.013 1.114h-1.1a2.3 2.3 0 0 0-.677.09 1.26 1.26 0 0 0-.472.252.977.977 0 0 0-.273.37 1.277 1.277 0 0 0-.082.464c0 .169.038.321.116.458a.83.83 0 0 0 .335.315c.146.073.316.109.512.109a1.6 1.6 0 0 0 .773-.178 1.41 1.41 0 0 0 .506-.437c.123-.173.187-.337.191-.492l.52.834c-.073.186-.174.38-.301.58-.123.201-.28.39-.472.568a2.434 2.434 0 0 1-.69.43c-.27.11-.588.165-.957.165-.47 0-.896-.094-1.279-.28a2.33 2.33 0 0 1-.902-.787 2.064 2.064 0 0 1-.328-1.148c0-.387.073-.732.219-1.032.146-.301.36-.554.642-.76.287-.209.645-.366 1.074-.47.428-.11.925-.165 1.49-.165h1.141Zm6.863-2.891v1.394h-4.307v-1.394h4.307Zm-3.24-1.826h1.968v6.993c0 .215.027.379.082.493.06.114.146.193.26.239.114.04.257.061.43.061.124 0 .233-.004.329-.013.1-.014.184-.028.253-.041l.007 1.449c-.17.055-.351.098-.547.13a4.058 4.058 0 0 1-.65.048c-.433 0-.81-.07-1.135-.212a1.563 1.563 0 0 1-.738-.698c-.173-.319-.26-.738-.26-1.257v-7.192Zm9.665 6.617a1.31 1.31 0 0 0-.082-.478.904.904 0 0 0-.287-.397 2.547 2.547 0 0 0-.594-.362 8.403 8.403 0 0 0-.992-.369c-.45-.146-.88-.31-1.285-.492a5.28 5.28 0 0 1-1.066-.636 2.865 2.865 0 0 1-.725-.854 2.36 2.36 0 0 1-.26-1.128c0-.415.092-.791.274-1.128.182-.342.437-.634.766-.875a3.637 3.637 0 0 1 1.162-.568 5.261 5.261 0 0 1 1.483-.198c.734 0 1.374.132 1.92.397.548.264.972.626 1.272 1.087.306.46.458.986.458 1.579h-2.037c0-.292-.061-.547-.184-.766a1.249 1.249 0 0 0-.547-.526c-.242-.128-.547-.192-.916-.192-.356 0-.652.055-.889.164a1.184 1.184 0 0 0-.533.431 1.06 1.06 0 0 0-.178.601c0 .17.041.322.123.459.087.136.215.264.383.382.169.119.376.23.622.335.246.105.531.208.855.308a9.091 9.091 0 0 1 1.428.554c.415.205.761.435 1.04.69.277.255.487.545.628.868.142.324.212.69.212 1.1 0 .434-.084.821-.253 1.163a2.387 2.387 0 0 1-.731.868c-.32.237-.7.417-1.142.54a5.528 5.528 0 0 1-1.483.185c-.492 0-.978-.064-1.456-.192a4.423 4.423 0 0 1-1.306-.594 2.998 2.998 0 0 1-.93-1.012c-.232-.41-.348-.896-.348-1.456h2.057c0 .31.048.572.144.786.096.214.23.387.403.52.178.132.388.227.63.287.245.059.514.088.806.088.355 0 .647-.05.875-.15.232-.1.403-.24.513-.417.113-.178.17-.378.17-.602Zm5.292-3.37v8.819h-1.97v-10.24h1.826l.144 1.421Zm4.682 2.195v.143c0 .538-.064 1.037-.191 1.497-.123.46-.306.862-.547 1.204a2.597 2.597 0 0 1-.903.792c-.355.187-.765.28-1.23.28-.451 0-.843-.09-1.176-.273a2.45 2.45 0 0 1-.84-.765 4.431 4.431 0 0 1-.54-1.156 9.108 9.108 0 0 1-.315-1.408v-.376a9.4 9.4 0 0 1 .314-1.476 4.26 4.26 0 0 1 .54-1.17c.228-.332.506-.59.834-.772.333-.182.723-.273 1.17-.273.469 0 .881.089 1.237.266.36.178.66.433.902.766.246.333.43.73.554 1.19.127.46.191.97.191 1.53Zm-1.975.143v-.143c0-.315-.028-.604-.082-.868a2.254 2.254 0 0 0-.247-.704 1.179 1.179 0 0 0-1.087-.636 1.66 1.66 0 0 0-.69.13c-.187.086-.34.212-.458.376s-.207.36-.267.587a3.848 3.848 0 0 0-.109.773v.95c.023.337.087.64.191.91.105.264.267.473.486.628.219.155.506.233.861.233.26 0 .479-.057.656-.171.178-.119.322-.28.431-.486.114-.205.194-.442.24-.71a4.74 4.74 0 0 0 .075-.869Zm5.12-6.863V20h-1.97V9.5h1.97Zm-.28 6.542h-.54c.004-.515.072-.989.204-1.422.133-.437.322-.816.568-1.135.246-.323.54-.574.882-.752a2.485 2.485 0 0 1 1.148-.266c.365 0 .695.052.991.157.301.1.558.264.773.492.218.223.387.518.506.882.118.365.177.807.177 1.326V20H92.88v-4.69c0-.328-.048-.585-.144-.772a.79.79 0 0 0-.403-.403 1.495 1.495 0 0 0-.643-.123c-.282 0-.524.052-.724.157-.196.105-.353.25-.472.437a1.943 1.943 0 0 0-.26.643 3.65 3.65 0 0 0-.082.793Zm9.61 4.095a4.13 4.13 0 0 1-1.544-.274 3.394 3.394 0 0 1-1.162-.772 3.434 3.434 0 0 1-.725-1.142 3.844 3.844 0 0 1-.253-1.394v-.274c0-.56.08-1.073.24-1.538.159-.465.387-.868.683-1.21.3-.342.665-.604 1.094-.786a3.59 3.59 0 0 1 1.449-.28c.524 0 .989.086 1.394.26.406.173.746.419 1.019.738.278.319.488.702.629 1.148.141.442.212.934.212 1.477v.82h-5.88v-1.312h3.945v-.15c0-.274-.05-.518-.15-.732a1.164 1.164 0 0 0-.438-.52c-.196-.127-.446-.191-.752-.191-.26 0-.483.057-.67.17a1.32 1.32 0 0 0-.457.48 2.577 2.577 0 0 0-.26.724 4.608 4.608 0 0 0-.082.902v.274c0 .296.04.57.123.82.086.25.207.467.362.65.16.182.351.323.574.423.228.1.486.15.773.15.355 0 .686-.068.991-.204.31-.142.576-.354.8-.636l.957 1.039a2.913 2.913 0 0 1-.636.642 3.387 3.387 0 0 1-.957.506 3.95 3.95 0 0 1-1.278.192Zm6.126-5.92V20h-1.969v-7.396h1.852l.117 1.613Zm2.228-1.661-.034 1.825a4.745 4.745 0 0 0-.349-.034 3.534 3.534 0 0 0-.362-.02c-.278 0-.519.036-.725.108-.2.069-.369.171-.505.308a1.327 1.327 0 0 0-.301.5c-.064.195-.1.418-.11.67l-.396-.124c0-.479.048-.918.144-1.32.095-.405.234-.758.417-1.059.186-.3.414-.533.683-.697.269-.164.577-.246.923-.246.109 0 .221.009.335.027.114.014.207.034.28.062Zm4.197 7.58a4.123 4.123 0 0 1-1.544-.273 3.394 3.394 0 0 1-1.163-.772 3.428 3.428 0 0 1-.724-1.142 3.836 3.836 0 0 1-.253-1.394v-.274c0-.56.08-1.073.239-1.538a3.63 3.63 0 0 1 .684-1.21 3.005 3.005 0 0 1 1.093-.786c.429-.187.912-.28 1.45-.28.524 0 .989.086 1.394.26.406.173.745.419 1.019.738a3.2 3.2 0 0 1 .629 1.148c.141.442.212.934.212 1.477v.82h-5.879v-1.312h3.944v-.15c0-.274-.05-.518-.15-.732a1.164 1.164 0 0 0-.438-.52c-.196-.127-.446-.191-.752-.191-.26 0-.483.057-.67.17a1.324 1.324 0 0 0-.458.48c-.114.204-.2.446-.259.724a4.582 4.582 0 0 0-.083.902v.274c0 .296.041.57.124.82.086.25.207.467.362.65.159.182.351.323.574.423.228.1.485.15.773.15a2.4 2.4 0 0 0 .991-.204c.31-.142.576-.354.8-.636l.957 1.039a2.913 2.913 0 0 1-.636.642 3.414 3.414 0 0 1-.957.506 3.95 3.95 0 0 1-1.279.192Z"/>
</svg>